<?xml version="1.0" encoding="utf-8"?>

<!DOCTYPE svg PUBLIC "-//W3C//DTD SVG 1.0//EN" "http://www.w3.org/TR/2001/REC-SVG-20010904/DTD/svg10.dtd">
<!-- Uploaded to: SVG Repo, www.svgrepo.com, Generator: SVG Repo Mixer Tools -->
<svg version="1.0" id="Layer_1" xmlns="http://www.w3.org/2000/svg" xmlns:xlink="http://www.w3.org/1999/xlink" 
	 width="800px" height="800px" viewBox="0 0 64 64" enable-background="new 0 0 64 64" xml:space="preserve">
<g>
	<g>
		<path fill="#394240" d="M60.002,20.026h-7.331l3.517-6.096c1.099-1.899,0.446-4.322-1.449-5.417L40.997,0.58
			c-1.896-1.094-4.318-0.445-5.416,1.454l-3.576,6.19l-3.576-6.19c-1.098-1.899-3.521-2.548-5.42-1.454L9.272,8.514
			c-1.899,1.094-2.548,3.517-1.45,5.417l3.518,6.096H4.008c-2.208,0-3.998,1.79-3.998,4.002v16c0,2.204,1.79,3.994,3.998,3.994
			h7.332l-3.518,6.096c-1.098,1.899-0.449,4.322,1.45,5.417l13.737,7.934c1.899,1.094,4.322,0.445,5.42-1.454l3.576-6.19l3.576,6.19
			c1.098,1.899,3.521,2.548,5.42,1.454l13.737-7.934c1.896-1.095,2.548-3.518,1.449-5.417l-3.517-6.096h7.331
			c2.208,0,3.998-1.79,3.998-3.994v-16C64,21.816,62.21,20.026,60.002,20.026z M56,36.026h-6.464
			c-0.82,3.596-2.72,6.769-5.338,9.191l3.138,5.433l-6.866,3.963l-3.13-5.417c-1.688,0.523-3.479,0.805-5.335,0.805
			c-1.86,0-3.65-0.281-5.339-0.805l-3.126,5.417l-6.87-3.963l3.138-5.433c-2.614-2.423-4.514-5.596-5.334-9.191H8.01v-8.004h6.456
			c0.812-3.604,2.708-6.792,5.33-9.215l-3.126-5.409l6.87-3.962l3.11,5.385c1.692-0.532,3.49-0.813,5.354-0.813
			s3.662,0.281,5.354,0.805l3.11-5.377l6.866,3.962l-3.122,5.409c2.618,2.423,4.518,5.611,5.33,9.215H56V36.026z"/>
		<path fill="#394240" d="M32.024,23.981c-4.424,0-8.004,3.58-8.004,8.004s3.58,8.004,8.004,8.004s8.004-3.58,8.004-8.004
			S36.448,23.981,32.024,23.981z"/>
	</g>
	<path fill="#506C7F" d="M49.544,28.022c-0.812-3.604-2.712-6.792-5.33-9.215l3.122-5.409L40.47,9.436l-3.11,5.377
		c-1.692-0.524-3.49-0.805-5.354-0.805s-3.662,0.281-5.354,0.813l-3.11-5.385l-6.87,3.962l3.126,5.409
		c-2.622,2.423-4.518,5.611-5.33,9.215H8.01v8.004h6.464c0.82,3.596,2.72,6.769,5.334,9.191L16.67,50.65l6.87,3.963l3.126-5.417
		c1.688,0.523,3.479,0.805,5.339,0.805c1.856,0,3.646-0.281,5.335-0.805l3.13,5.417l6.866-3.963l-3.138-5.433
		c2.618-2.423,4.518-5.596,5.338-9.191H56v-8.004H49.544z M31.985,40.067c-4.42,0-8.004-3.584-8.004-8.004s3.584-8.004,8.004-8.004
		s8.004,3.584,8.004,8.004S36.405,40.067,31.985,40.067z"/>
</g>
</svg>